<svg xmlns="http://www.w3.org/2000/svg" viewBox="0 0 64 64" role="img" aria-label="MD">
  <rect width="64" height="64" rx="14" fill="#c1121f"/>
  <path d="M11 45V19h7.2l8.1 12.9L34.4 19H42v26h-7.5V31.2l-6.8 10.4h-2.9L18 31.3V45H11Zm34.8 0V19H56c3.7 0 6.6 1.2 8.9 3.6 2.2 2.3 3.3 5.5 3.3 9.4s-1.1 7.1-3.3 9.4c-2.3 2.4-5.2 3.6-8.9 3.6H45.8Zm7.7-6.7h2.1c1.6 0 2.8-.5 3.7-1.6.9-1.1 1.4-2.7 1.4-4.7s-.5-3.6-1.4-4.7c-.9-1.1-2.1-1.6-3.7-1.6h-2.1v12.6Z" fill="#fff" transform="scale(.82) translate(2 7)"/>
</svg>
